<svg width="40" height="40" viewBox="0 0 40 40" fill="none" xmlns="http://www.w3.org/2000/svg">
<g clip-path="url(#clip0_1600_7463)">
<path d="M35.2501 0H4.75757C2.13007 0 0.00506581 2.125 6.58098e-05 4.75V35.225C-0.00323091 35.8513 0.117364 36.4721 0.354911 37.0516C0.592457 37.6311 0.942265 38.1579 1.3842 38.6017C1.82614 39.0455 2.35148 39.3975 2.92999 39.6375C3.5085 39.8775 4.12876 40.0007 4.75507 40H35.2526C35.8782 39.9997 36.4977 39.8758 37.0753 39.6353C37.653 39.3949 38.1774 39.0427 38.6186 38.599C39.0597 38.1553 39.4089 37.6289 39.6459 37.0498C39.883 36.4708 40.0034 35.8507 40.0001 35.225V4.75C40.0001 3.49022 39.4996 2.28204 38.6088 1.39124C37.718 0.500445 36.5098 0 35.2501 0ZM17.5001 28.4175C17.4991 28.6265 17.4569 28.8333 17.3759 29.026C17.295 29.2187 17.1768 29.3935 17.0282 29.5405C16.8796 29.6875 16.7034 29.8037 16.5099 29.8826C16.3163 29.9614 16.1091 30.0013 15.9001 30H8.98256C8.56416 29.998 8.16357 29.8304 7.86841 29.5339C7.57326 29.2373 7.40756 28.8359 7.40757 28.4175V8.9575C7.40757 8.0875 8.11007 7.38 8.98256 7.375H15.8951C16.7701 7.38 17.4751 8.085 17.4776 8.9575L17.5001 28.4175ZM32.6301 19.6675C32.6301 19.8768 32.5886 20.084 32.508 20.2772C32.4273 20.4703 32.3092 20.6455 32.1604 20.7927C32.0116 20.9399 31.8351 21.0561 31.641 21.1346C31.447 21.2131 31.2394 21.2523 31.0301 21.25H24.0801C23.6614 21.2474 23.2607 21.0797 22.9649 20.7834C22.6691 20.4872 22.502 20.0862 22.5001 19.6675V8.9575C22.502 8.5384 22.6694 8.13703 22.9657 7.84068C23.2621 7.54433 23.6635 7.37697 24.0826 7.375H31.0276C31.9026 7.38 32.6051 8.0875 32.6051 8.9575L32.6301 19.6675Z" fill="black"/>
</g>
<defs>
<clipPath id="clip0_1600_7463">
<rect width="40" height="40" fill="white"/>
</clipPath>
</defs>
</svg>
