<svg width="13" height="12" viewBox="0 0 13 12" fill="none" xmlns="http://www.w3.org/2000/svg">
<path d="M10.1375 3.4875L7.5125 0.8625C7.4375 0.7875 7.3625 0.75 7.25 0.75H3.5C3.0875 0.75 2.75 1.0875 2.75 1.5V10.5C2.75 10.9125 3.0875 11.25 3.5 11.25H9.5C9.9125 11.25 10.25 10.9125 10.25 10.5V3.75C10.25 3.6375 10.2125 3.5625 10.1375 3.4875ZM7.25 1.65L9.35 3.75H7.25V1.65ZM9.5 10.5H3.5V1.5H6.5V3.75C6.5 4.1625 6.8375 4.5 7.25 4.5H9.5V10.5Z" fill="white"/>
<path d="M4.25 8.25H8.75V9H4.25V8.25ZM4.25 6H8.75V6.75H4.25V6Z" fill="white"/>
</svg>
