<svg width="13" height="12" viewBox="0 0 13 12" fill="none" xmlns="http://www.w3.org/2000/svg">
<path d="M5 9C4.70333 9 4.41332 8.91203 4.16665 8.74721C3.91997 8.58238 3.72771 8.34811 3.61418 8.07403C3.50065 7.79994 3.47094 7.49834 3.52882 7.20737C3.5867 6.91639 3.72956 6.64912 3.93934 6.43934C4.14912 6.22956 4.41639 6.0867 4.70737 6.02882C4.99834 5.97094 5.29994 6.00065 5.57403 6.11418C5.84812 6.22771 6.08238 6.41997 6.24721 6.66665C6.41203 6.91332 6.5 7.20333 6.5 7.5C6.4996 7.8977 6.34144 8.279 6.06022 8.56022C5.779 8.84144 5.3977 8.9996 5 9ZM5 6.75C4.85166 6.75 4.70666 6.79399 4.58332 6.8764C4.45999 6.95881 4.36386 7.07594 4.30709 7.21299C4.25033 7.35003 4.23547 7.50083 4.26441 7.64632C4.29335 7.7918 4.36478 7.92544 4.46967 8.03033C4.57456 8.13522 4.7082 8.20665 4.85368 8.23559C4.99917 8.26453 5.14997 8.24968 5.28701 8.19291C5.42406 8.13614 5.54119 8.04002 5.6236 7.91668C5.70601 7.79334 5.75 7.64834 5.75 7.5C5.75 7.30109 5.67098 7.11032 5.53033 6.96967C5.38968 6.82902 5.19891 6.75 5 6.75Z" fill="white"/>
<path d="M11.7495 2.25C11.7491 1.8523 11.5909 1.471 11.3097 1.18978C11.0285 0.90856 10.6472 0.750397 10.2495 0.75C10.0066 0.751714 9.76783 0.813143 9.55425 0.928875L3.40838 4.10887C2.86246 4.36443 2.38626 4.74792 2.02019 5.22679C1.65411 5.70566 1.40896 6.26578 1.30555 6.85961C1.20214 7.45344 1.24352 8.06346 1.42618 8.63789C1.60883 9.21231 1.92738 9.7342 2.35477 10.1592C2.78216 10.5843 3.30579 10.9 3.88121 11.0795C4.45663 11.2589 5.06687 11.297 5.66012 11.1903C6.25338 11.0836 6.81214 10.8354 7.28899 10.4667C7.76584 10.098 8.1467 9.61969 8.39925 9.07238L11.583 2.92238C11.6909 2.71456 11.7479 2.48413 11.7495 2.25ZM10.2495 1.5C10.3978 1.5 10.5428 1.54399 10.6662 1.6264C10.7895 1.70881 10.8856 1.82594 10.9424 1.96299C10.9992 2.10003 11.014 2.25083 10.9851 2.39632C10.9562 2.5418 10.8847 2.67544 10.7798 2.78033C10.6749 2.88522 10.5413 2.95665 10.3958 2.98559C10.2503 3.01453 10.0995 2.99968 9.96249 2.94291C9.82544 2.88614 9.70831 2.79001 9.6259 2.66668C9.54349 2.54334 9.4995 2.39834 9.4995 2.25C9.4995 2.05109 9.57852 1.86032 9.71917 1.71967C9.85982 1.57902 10.0506 1.5 10.2495 1.5ZM8.757 2.178C8.7555 2.20238 8.7495 2.22525 8.7495 2.25C8.7499 2.6477 8.90806 3.029 9.18928 3.31022C9.4705 3.59144 9.8518 3.7496 10.2495 3.75C10.2739 3.75 10.2964 3.744 10.32 3.74288L8.6955 6.87862C8.56437 6.11001 8.19738 5.40123 7.6454 4.85053C7.09342 4.29983 6.38379 3.93448 5.61488 3.80513L8.757 2.178ZM4.9995 10.5C4.40616 10.5 3.82614 10.3241 3.33279 9.99441C2.83944 9.66476 2.45493 9.19623 2.22786 8.64805C2.0008 8.09987 1.94139 7.49667 2.05715 6.91473C2.1729 6.33279 2.45862 5.79824 2.87818 5.37868C3.29774 4.95912 3.83229 4.6734 4.41423 4.55764C4.99617 4.44189 5.59937 4.5013 6.14755 4.72836C6.69573 4.95542 7.16427 5.33994 7.49391 5.83329C7.82355 6.32664 7.9995 6.90666 7.9995 7.5C7.99851 8.29534 7.68212 9.05783 7.11973 9.62022C6.55733 10.1826 5.79485 10.499 4.9995 10.5Z" fill="white"/>
</svg>
