<svg width="40" height="40" viewBox="0 0 40 40" fill="none" xmlns="http://www.w3.org/2000/svg">
<g clip-path="url(#clip0_1600_7486)">
<path d="M23.8287 0.078125L27.9096 0.105C27.9865 0.164687 28.0487 0.20375 28.1146 0.233125C28.8543 0.5675 29.6562 0.806875 30.3228 1.25125C32.2553 2.53562 34.1425 3.88906 36.0284 5.24188C36.905 5.86906 37.769 6.52219 38.5771 7.2325C39.1778 7.76 39.4475 8.50844 39.449 9.30656L39.4475 34.4225C39.4465 34.7728 39.3865 35.1331 39.289 35.47C38.8459 37.0056 37.8631 38.0566 36.3165 38.4669C35.5009 38.6828 34.6393 38.75 33.7934 38.8197C32.4737 38.9294 31.1493 38.9831 29.8271 39.0625L27.3259 39.2188L23.3209 39.4544L20.8587 39.6081L16.8146 39.8425L14.7246 39.9281C14.6575 39.9316 14.5953 40.0256 14.5318 40.0781C12.9412 40.0781 11.3518 40.0781 9.74777 40.0525C9.6709 39.9916 9.61246 39.9425 9.54402 39.9231C8.57465 39.6422 7.76183 39.1066 7.13683 38.3288C6.27121 37.2534 5.44871 36.145 4.61621 35.0441C3.59308 33.6912 2.5434 32.3584 1.57652 30.9669C1.00822 30.1538 0.703825 29.1855 0.704645 28.1934C0.701921 20.7756 0.702858 13.3578 0.707458 5.94C0.707458 5.72625 0.744958 5.51031 0.781833 5.29781C1.16996 3.01406 2.86058 1.79562 4.87121 1.56969C5.91496 1.4525 6.9659 1.4 8.01465 1.33062L10.7865 1.17062L11.9781 1.0925L15.5718 0.7825L17.564 0.62625L20.8637 0.391875L23.6356 0.228125C23.7031 0.223438 23.7653 0.130625 23.8287 0.078125ZM8.1084 35.6825C8.27465 35.8984 8.45996 36.1034 8.60527 36.3331C9.30965 37.4353 10.3193 37.8356 11.6021 37.7503L20.2925 37.2328L30.0725 36.6419L34.9418 36.3281C36.385 36.2122 37.0818 35.4322 37.11 33.9844V33.6719L37.1209 9.96469C37.1221 9.25062 36.8756 8.75125 36.3043 8.35219L29.4218 3.50219C28.3146 2.69656 27.1393 2.32063 25.7781 2.42812L18.0706 2.99813L10.0115 3.5925L4.95308 3.98688C3.93121 4.08063 3.29777 4.70563 3.11465 5.70813C3.07012 5.96403 3.04847 6.22338 3.04996 6.48313L3.02902 27.1838C3.02183 28.54 3.43683 29.6681 4.24871 30.7056L8.1084 35.6825Z" fill="white"/>
<path d="M8.08869 35.6616L4.24712 30.7053C3.43525 29.6678 3.02025 28.54 3.02744 27.1838L3.04837 6.48316C3.04837 6.22441 3.06775 5.96191 3.11306 5.70816C3.29619 4.70597 3.92962 4.08097 4.9515 3.98691L10.0099 3.59253L18.0693 2.99816L25.7765 2.42816C27.1377 2.32066 28.3131 2.6966 29.4202 3.50222C31.6896 5.15378 34.0015 6.74691 36.3027 8.35222C36.874 8.75128 37.1206 9.25066 37.1193 9.96472L37.1084 33.6732V33.9857C37.0802 35.4322 36.3834 36.2122 34.9402 36.3282C33.3193 36.4588 31.6946 36.5432 30.0709 36.6419L20.2909 37.2325L11.6006 37.7503C10.3177 37.8357 9.30806 37.4353 8.60369 36.3332C8.45837 36.1035 8.27306 35.8985 8.08869 35.6616ZM10.0906 21.2891V31.7541L10.0931 33.706C10.1099 34.5813 10.5387 35.0172 11.4137 35.0672C11.6334 35.0794 11.8556 35.0719 12.0765 35.0585L19.4021 34.6266L33.3912 33.8269C34.2631 33.7782 34.6659 33.396 34.7474 32.5319C34.7634 32.3766 34.7584 32.2194 34.7584 32.0632L34.7596 11.9141C34.7596 11.7969 34.7634 11.6797 34.7562 11.5625C34.7037 10.7607 34.3593 10.4335 33.5624 10.476L26.3527 10.8913C22.9758 11.0877 19.5989 11.2854 16.2221 11.4844L11.1574 11.7885C10.5118 11.8297 10.2199 12.1082 10.1224 12.7394C10.0994 12.9068 10.0891 13.0757 10.0918 13.2447L10.0906 21.2891ZM27.9568 4.81191C27.3452 4.48003 26.6812 4.37003 25.9974 4.40785C24.9465 4.46535 23.8956 4.55191 22.8443 4.62785L7.86025 5.7166C7.40744 5.74941 6.95212 5.78222 6.50525 5.86316C6.35525 5.89003 6.16587 6.04128 6.11962 6.17816C6.08525 6.27441 6.23681 6.46878 6.34775 6.57503C6.55306 6.77128 6.78962 6.93597 7.01337 7.11316C7.54431 7.53191 8.10931 7.91378 8.5965 8.3766C9.52056 9.2541 10.5959 9.45691 11.8277 9.36785L21.5262 8.75972L31.9668 8.13347C32.0621 8.12878 32.1574 8.09941 32.3671 8.06035C32.1756 7.86128 32.0643 7.70878 31.9193 7.60128C31.4078 7.22352 30.8914 6.85245 30.3703 6.48816C29.5695 5.924 28.765 5.36523 27.9568 4.81191Z" fill="black"/>
<path d="M10.0934 21.2515L10.0947 13.2462C10.0947 13.0775 10.0997 12.9068 10.1253 12.7409C10.2228 12.1097 10.5147 11.8315 11.1603 11.79L16.225 11.4859L26.3556 10.8928L33.565 10.4775C34.3622 10.435 34.7065 10.7631 34.7587 11.564C34.7662 11.6812 34.7625 11.7984 34.7625 11.9156L34.7612 32.0647L34.7503 32.5334C34.6687 33.3975 34.2659 33.7797 33.394 33.8284L19.405 34.6281L12.0793 35.06L11.4168 35.0687C10.5415 35.0187 10.1128 34.5828 10.0959 33.7087L10.0934 31.7556V21.2515ZM24.3953 21.2722L20.374 15.1456C20.2337 14.9318 20.0959 14.8612 19.8372 14.8893L18.1231 15.005L14.97 15.2359C14.195 15.3068 13.7262 16.0356 13.9409 16.7912L15.6109 16.934V30.4631L14.4734 30.784C13.969 30.9328 13.7531 31.3578 13.9228 31.9009L17.769 31.68L19.284 31.5556C19.9372 31.4481 20.2887 31.0478 20.3765 30.3947L18.2734 29.915V19.739L18.4297 19.9578L23.2634 27.5053C23.9739 28.6075 24.7036 29.6973 25.4522 30.774C25.9856 31.5397 26.7718 31.774 27.6556 31.5834C28.2087 31.4653 28.7396 31.2406 29.2815 31.0659C29.5637 30.9743 29.66 30.8059 29.6587 30.4897L29.6493 16.5834C29.6493 15.7706 29.6493 15.7706 30.4534 15.6084C31.2665 15.4447 31.4703 15.12 31.2847 14.2509L26.4253 14.5462C25.8965 14.584 25.4962 15.0259 25.4159 15.54C25.3765 15.7878 25.4278 15.9243 25.7243 15.9415L27.1956 16.104V25.535C26.2637 24.1134 25.3303 22.6929 24.3953 21.2734V21.2722ZM27.9862 4.82685C28.7839 5.37772 29.5793 5.93189 30.3725 6.48935C30.8937 6.85374 31.4102 7.22492 31.9218 7.60279C32.0668 7.71029 32.1781 7.86279 32.3696 8.06185L31.9693 8.13497L21.5287 8.76122L11.8303 9.36935C10.5984 9.45841 9.52309 9.2556 8.59903 8.3781C8.11184 7.9156 7.54684 7.53341 7.01559 7.11466C6.79215 6.93747 6.55559 6.77279 6.35028 6.57622C6.23934 6.46997 6.08777 6.27622 6.12215 6.17935C6.1684 6.04279 6.35903 5.89154 6.50778 5.86466C6.95465 5.78404 7.40996 5.75091 7.86278 5.7181L22.8472 4.62935L26.0003 4.40935C26.6837 4.37185 27.3478 4.48122 27.9862 4.82685Z" fill="white"/>
<path d="M24.4097 21.2944L27.1932 25.5341V16.1028L25.7222 15.9403C25.4254 15.9234 25.3741 15.7869 25.4132 15.5391C25.4938 15.025 25.8944 14.5831 26.4226 14.5453L31.2822 14.25C31.4679 15.1187 31.2641 15.4438 30.451 15.6072C29.6466 15.7684 29.6466 15.7684 29.6466 16.5825L29.6563 30.4887C29.6576 30.805 29.5613 30.9734 29.2791 31.065L27.6532 31.5825C26.7694 31.7719 25.9832 31.5387 25.4501 30.7731C24.7018 29.6961 23.9721 28.6064 23.2613 27.5044L18.4269 19.9566C18.3929 19.9028 18.3538 19.8528 18.2707 19.7381V29.9141L20.3741 30.3938C20.2863 31.0469 19.9347 31.4469 19.2816 31.5547C18.7835 31.6362 18.2722 31.6484 17.7666 31.6791L13.9204 31.9C13.7507 31.3569 13.9666 30.9319 14.471 30.7831L15.6085 30.4622V16.9331L13.9385 16.7903C13.7238 16.0347 14.1925 15.3059 14.9675 15.235C16.0163 15.1372 17.0697 15.0775 18.1207 15.0044C18.6919 14.9653 19.2657 14.9506 19.8347 14.8884C20.0935 14.8603 20.2316 14.9309 20.3716 15.1447L24.4097 21.2944Z" fill="black"/>
</g>
<defs>
<clipPath id="clip0_1600_7486">
<rect width="40" height="40" fill="white"/>
</clipPath>
</defs>
</svg>
