<svg width="14" height="14" viewBox="0 0 14 14" fill="none" xmlns="http://www.w3.org/2000/svg">
<g clip-path="url(#clip0_1600_7537)">
<path d="M12.1661 0.234375H1.83016C0.948831 0.234375 0.234375 0.948831 0.234375 1.83016V12.165C0.234375 13.0463 0.948831 13.7608 1.83016 13.7608H12.1661C13.0474 13.7608 13.7619 13.0463 13.7619 12.165V1.83016C13.7619 0.948831 13.0474 0.234375 12.1661 0.234375Z" fill="url(#paint0_linear_1600_7537)"/>
<path d="M5.75609 6.59172C5.75609 6.59172 6.90453 6.50641 6.90453 5.16C6.90453 3.81359 5.965 3.15625 4.775 3.15625H0.859375V10.6812H4.775C4.775 10.6812 7.16484 10.7567 7.16484 8.45984C7.16484 8.45984 7.26984 6.59172 5.75609 6.59172ZM2.58422 4.49391H4.77172C4.77172 4.49391 5.30437 4.49391 5.30437 5.27703C5.30437 6.06016 4.99156 6.17391 4.63609 6.17391H2.58531L2.58422 4.49391ZM4.67328 9.34359H2.58531V7.33328H4.77281C4.77281 7.33328 5.56578 7.32234 5.56578 8.36687C5.56797 9.23641 4.98828 9.33484 4.67438 9.34359H4.67328ZM10.3531 5.07141C7.45906 5.07141 7.46234 7.96219 7.46234 7.96219C7.46234 7.96219 7.26328 10.8387 10.3531 10.8387C10.3531 10.8387 12.9278 10.9853 12.9278 8.83828H11.6044C11.6044 8.83828 11.6481 9.64766 10.4012 9.64766C10.4012 9.64766 9.07672 9.73625 9.07672 8.33516H12.9759C12.9759 8.33516 13.3992 5.07141 10.3531 5.07141ZM11.53 7.33328H9.05812C9.05812 7.33328 9.22 6.17391 10.3827 6.17391C11.5453 6.17391 11.53 7.33328 11.53 7.33328ZM8.73438 3.60031H11.8384V4.52672H8.73438V3.60031Z" fill="white"/>
</g>
<defs>
<linearGradient id="paint0_linear_1600_7537" x1="6.99812" y1="0.234375" x2="6.99812" y2="13.7619" gradientUnits="userSpaceOnUse">
<stop stop-color="#005CFF"/>
<stop offset="1" stop-color="#0047AD"/>
</linearGradient>
<clipPath id="clip0_1600_7537">
<rect width="14" height="14" fill="white"/>
</clipPath>
</defs>
</svg>
