<svg width="40" height="40" viewBox="0 0 40 40" fill="none" xmlns="http://www.w3.org/2000/svg">
<g clip-path="url(#clip0_1600_7457)">
<path d="M8.51562 25.2241C8.51562 27.5147 6.6475 29.3856 4.35656 29.3856C2.06563 29.3856 0.195312 27.5147 0.195312 25.2241C0.195312 22.9334 2.06625 21.0625 4.35687 21.0625H8.51594L8.51562 25.2241ZM10.6122 25.2241C10.6122 22.9334 12.4831 21.0625 14.7737 21.0625C17.0644 21.0625 18.9353 22.9331 18.9353 25.2241V35.6413C18.9353 37.9319 17.0647 39.8028 14.7737 39.8028C12.4831 39.8028 10.6122 37.9319 10.6122 35.6413V25.2241Z" fill="#DE1C59"/>
<path d="M14.7737 8.51562C12.4831 8.51562 10.6122 6.6475 10.6122 4.35656C10.6122 2.06563 12.4831 0.195312 14.7737 0.195312C17.0644 0.195312 18.9353 2.06625 18.9353 4.35687V8.51594L14.7737 8.51562ZM14.7737 10.6122C17.0644 10.6122 18.9353 12.4831 18.9353 14.7737C18.9353 17.0644 17.0647 18.9353 14.7737 18.9353H4.35656C2.06594 18.9353 0.195312 17.0647 0.195312 14.7737C0.195312 12.4831 2.06625 10.6122 4.35687 10.6122H14.7737Z" fill="#35C5F0"/>
<path d="M31.4822 14.7737C31.4822 12.4831 33.3503 10.6122 35.6413 10.6122C37.9322 10.6122 39.8028 12.4831 39.8028 14.7737C39.8028 17.0644 37.9319 18.9353 35.6413 18.9353H31.4822V14.7737ZM29.3856 14.7737C29.3856 17.0644 27.5147 18.9353 25.2241 18.9353C22.9334 18.9353 21.0625 17.0647 21.0625 14.7737V4.35656C21.0625 2.06594 22.9331 0.195312 25.2241 0.195312C27.5147 0.195312 29.3856 2.06625 29.3856 4.35687V14.7737Z" fill="#2EB57D"/>
<path d="M25.2241 31.4822C27.5147 31.4822 29.3856 33.3503 29.3856 35.6413C29.3856 37.9322 27.5147 39.8028 25.2241 39.8028C22.9334 39.8028 21.0625 37.9319 21.0625 35.6413V31.4822H25.2241ZM25.2241 29.3856C22.9334 29.3856 21.0625 27.5147 21.0625 25.2241C21.0625 22.9334 22.9331 21.0625 25.2241 21.0625H35.6413C37.9319 21.0625 39.8028 22.9331 39.8028 25.2241C39.8028 27.5147 37.9319 29.3856 35.6413 29.3856H25.2241Z" fill="#EBB02E"/>
</g>
<defs>
<clipPath id="clip0_1600_7457">
<rect width="40" height="40" fill="white"/>
</clipPath>
</defs>
</svg>
