<svg width="14" height="14" viewBox="0 0 14 14" fill="none" xmlns="http://www.w3.org/2000/svg">
<g clip-path="url(#clip0_1600_7516)">
<path d="M12.6875 0.328176H1.3125C1.05441 0.325549 0.805817 0.425415 0.621271 0.60586C0.436724 0.786305 0.331298 1.03259 0.328125 1.29068V12.7116C0.331872 12.9693 0.43755 13.215 0.622034 13.395C0.806518 13.575 1.05478 13.6746 1.3125 13.6719H12.6875C12.9456 13.674 13.194 13.5738 13.3785 13.3932C13.5629 13.2127 13.6684 12.9664 13.6719 12.7083V1.28739C13.6673 1.03007 13.5613 0.784955 13.377 0.605338C13.1926 0.425721 12.9449 0.326117 12.6875 0.328176Z" fill="#0076B2"/>
<path d="M2.30203 5.32812H4.28281V11.7014H2.30203V5.32812ZM3.29297 2.15625C3.52016 2.15625 3.74224 2.22363 3.93112 2.34987C4.12 2.47611 4.2672 2.65554 4.35409 2.86545C4.44098 3.07537 4.46366 3.30633 4.41926 3.52914C4.37486 3.75194 4.26537 3.95657 4.10465 4.11714C3.94393 4.27771 3.73919 4.387 3.51635 4.43119C3.2935 4.47538 3.06255 4.45248 2.85272 4.36539C2.64289 4.2783 2.46361 4.13093 2.33755 3.94193C2.21149 3.75293 2.14432 3.53078 2.14453 3.30359C2.14482 2.9992 2.26595 2.70737 2.48129 2.49223C2.69663 2.2771 2.98857 2.15625 3.29297 2.15625ZM5.52531 5.32812H7.42406V6.20312H7.45031C7.715 5.70219 8.36031 5.17391 9.32391 5.17391C11.3298 5.16953 11.7017 6.48969 11.7017 8.20141V11.7014H9.72094V8.60063C9.72094 7.86234 9.70781 6.91187 8.69172 6.91187C7.67563 6.91187 7.50281 7.71688 7.50281 8.5525V11.7014H5.52531V5.32812Z" fill="white"/>
</g>
<defs>
<clipPath id="clip0_1600_7516">
<rect width="14" height="14" fill="white"/>
</clipPath>
</defs>
</svg>
