<svg width="40" height="40" viewBox="0 0 40 40" fill="none" xmlns="http://www.w3.org/2000/svg">
<g clip-path="url(#clip0_1600_7430)">
<path fill-rule="evenodd" clip-rule="evenodd" d="M12.5602 23.9534L0 11.6484V7.49828L14.9525 22.322C17.0648 24.0475 14.8632 26.8441 12.5602 23.9534ZM30.8873 20.9787C34.2934 15.1781 37.4032 7.46953 39.2328 0H34.5762C33.6464 8.71797 31.4784 13.8629 29.777 21.4036C29.2433 21.4802 28.7014 21.4802 28.1677 21.4036C26.4661 13.863 24.2982 8.71797 23.3684 0H18.7117C20.5413 7.46953 23.6511 15.1781 27.0573 20.9786C22.6578 17.3069 16.1398 5.04914 14.9631 0H13.2471C14.5962 5.48781 21.3892 15.5516 25.3232 20.5959C19.327 14.4697 13.8996 6.49141 11.8922 0H0V4.25867L18.3747 22.4223L24.648 34.2906C27.1094 39.3215 21.0938 35.7798 10.6387 29.9252L0 19.4316V40H40V11.5839C37.6 15.1537 35.4822 17.4735 32.6214 20.596C34.6925 17.9404 37.5556 13.8937 40 9.85586V7.48227C37.3097 12.8462 33.6123 18.8245 30.8872 20.9787M32.9977 24.027L25.2132 24.0316L26.2859 28.7281L31.9544 28.7472L32.9977 24.027Z" fill="black"/>
</g>
<defs>
<clipPath id="clip0_1600_7430">
<rect width="40" height="40" fill="white"/>
</clipPath>
</defs>
</svg>
