<svg width="13" height="12" viewBox="0 0 13 12" fill="none" xmlns="http://www.w3.org/2000/svg">
<path fill-rule="evenodd" clip-rule="evenodd" d="M8.5 4.5C8.5 5.03043 8.28929 5.53914 7.91421 5.91421C7.53914 6.28929 7.03043 6.5 6.5 6.5C5.96957 6.5 5.46086 6.28929 5.08579 5.91421C4.71071 5.53914 4.5 5.03043 4.5 4.5C4.5 3.96957 4.71071 3.46086 5.08579 3.08579C5.46086 2.71071 5.96957 2.5 6.5 2.5C7.03043 2.5 7.53914 2.71071 7.91421 3.08579C8.28929 3.46086 8.5 3.96957 8.5 4.5ZM7.5 4.5C7.5 4.76522 7.39464 5.01957 7.20711 5.20711C7.01957 5.39464 6.76522 5.5 6.5 5.5C6.23478 5.5 5.98043 5.39464 5.79289 5.20711C5.60536 5.01957 5.5 4.76522 5.5 4.5C5.5 4.23478 5.60536 3.98043 5.79289 3.79289C5.98043 3.60536 6.23478 3.5 6.5 3.5C6.76522 3.5 7.01957 3.60536 7.20711 3.79289C7.39464 3.98043 7.5 4.23478 7.5 4.5Z" fill="white"/>
<path fill-rule="evenodd" clip-rule="evenodd" d="M6.5 0.5C3.4625 0.5 1 2.9625 1 6C1 9.0375 3.4625 11.5 6.5 11.5C9.5375 11.5 12 9.0375 12 6C12 2.9625 9.5375 0.5 6.5 0.5ZM2 6C2 7.045 2.3565 8.007 2.954 8.771C3.37372 8.22006 3.91508 7.77357 4.53582 7.46636C5.15656 7.15916 5.8399 6.99955 6.5325 7C7.21619 6.9992 7.89103 7.15455 8.50556 7.45419C9.1201 7.75383 9.65808 8.18985 10.0785 8.729C10.5117 8.1608 10.8034 7.49761 10.9294 6.79429C11.0555 6.09098 11.0122 5.36777 10.8032 4.68449C10.5943 4.00122 10.2256 3.37752 9.72774 2.86502C9.22988 2.35251 8.61713 1.96593 7.94019 1.73725C7.26326 1.50858 6.5416 1.44439 5.83493 1.54999C5.12826 1.65559 4.4569 1.92795 3.87638 2.34453C3.29587 2.76111 2.82291 3.30994 2.49661 3.9456C2.17032 4.58126 2.00009 5.28548 2 6ZM6.5 10.5C5.46695 10.5017 4.46507 10.1463 3.664 9.494C3.9864 9.03231 4.4156 8.65535 4.91504 8.39523C5.41448 8.13511 5.96938 7.99952 6.5325 8C7.08859 7.99951 7.63677 8.13173 8.13149 8.38566C8.62622 8.63958 9.05321 9.0079 9.377 9.46C8.56974 10.1335 7.55132 10.5016 6.5 10.5Z" fill="white"/>
</svg>
