<svg width="14" height="14" viewBox="0 0 14 14" fill="none" xmlns="http://www.w3.org/2000/svg">
<path d="M11.2398 3.10786C10.4639 2.7462 9.62393 2.4837 8.74893 2.33203C8.73354 2.33225 8.71887 2.33854 8.7081 2.34953C8.6031 2.54203 8.4806 2.79286 8.39893 2.98536C7.47084 2.84545 6.52702 2.84545 5.59893 2.98536C5.51726 2.78703 5.39476 2.54203 5.28393 2.34953C5.2781 2.33786 5.2606 2.33203 5.2431 2.33203C4.3681 2.4837 3.53393 2.7462 2.75226 3.10786C2.74643 3.10786 2.7406 3.1137 2.73476 3.11953C1.1481 5.4937 0.710596 7.8037 0.926429 10.0904C0.926429 10.102 0.932262 10.1137 0.943929 10.1195C1.99393 10.8895 3.0031 11.3562 4.0006 11.6654C4.0181 11.6712 4.0356 11.6654 4.04143 11.6537C4.27476 11.3329 4.48476 10.9945 4.6656 10.6387C4.67726 10.6154 4.6656 10.592 4.64226 10.5862C4.30976 10.4579 3.99476 10.3062 3.6856 10.1312C3.66226 10.1195 3.66226 10.0845 3.67976 10.067C3.74393 10.0204 3.8081 9.96786 3.87226 9.9212C3.88393 9.90953 3.90143 9.90953 3.9131 9.91536C5.91976 10.8312 8.08393 10.8312 10.0673 9.91536C10.0789 9.90953 10.0964 9.90953 10.1081 9.9212C10.1723 9.9737 10.2364 10.0204 10.3006 10.0729C10.3239 10.0904 10.3239 10.1254 10.2948 10.137C9.99143 10.3179 9.6706 10.4637 9.3381 10.592C9.31476 10.5979 9.30893 10.627 9.31476 10.6445C9.50143 11.0004 9.71143 11.3387 9.93893 11.6595C9.95643 11.6654 9.97393 11.6712 9.99143 11.6654C10.9948 11.3562 12.0039 10.8895 13.0539 10.1195C13.0656 10.1137 13.0714 10.102 13.0714 10.0904C13.3281 7.44786 12.6456 5.15536 11.2631 3.11953C11.2573 3.1137 11.2514 3.10786 11.2398 3.10786ZM4.96893 8.6962C4.3681 8.6962 3.86643 8.14203 3.86643 7.45953C3.86643 6.77703 4.35643 6.22286 4.96893 6.22286C5.58726 6.22286 6.07726 6.78286 6.07143 7.45953C6.07143 8.14203 5.58143 8.6962 4.96893 8.6962ZM9.03476 8.6962C8.43393 8.6962 7.93226 8.14203 7.93226 7.45953C7.93226 6.77703 8.42226 6.22286 9.03476 6.22286C9.6531 6.22286 10.1431 6.78286 10.1373 7.45953C10.1373 8.14203 9.6531 8.6962 9.03476 8.6962Z" fill="#E6E6E6"/>
</svg>
