<svg width="13" height="12" viewBox="0 0 13 12" fill="none" xmlns="http://www.w3.org/2000/svg">
<path d="M11.5 6C11.5008 6.65858 11.3711 7.31079 11.1184 7.91895C10.8657 8.52712 10.495 9.07918 10.0278 9.54325C9.56425 10.0059 9.01412 10.3727 8.40882 10.6226C7.80351 10.8726 7.15489 11.0008 6.5 11C3.7385 11 1.5 8.7615 1.5 6C1.49821 4.71794 1.99068 3.48451 2.875 2.55625C3.34156 2.06387 3.9037 1.67188 4.52701 1.40429C5.15032 1.1367 5.82168 0.999127 6.5 1C7.15489 0.999197 7.80351 1.12743 8.40882 1.37739C9.01412 1.62734 9.56425 1.99412 10.0278 2.45675C10.495 2.92083 10.8657 3.47289 11.1184 4.08106C11.3711 4.68922 11.5008 5.34143 11.5 6Z" stroke="white" stroke-linecap="round" stroke-linejoin="round"/>
<path d="M11.4991 5.9994C10.7696 5.9994 8.75709 5.7244 6.95584 6.51515C4.99909 7.3744 3.58234 8.7074 2.96484 9.53615" stroke="white" stroke-linecap="round" stroke-linejoin="round"/>
<path d="M4.625 1.36328C5.4075 2.08553 7.115 3.92428 7.75 5.74978C8.385 7.57528 8.62 9.81978 8.765 10.4585" stroke="white" stroke-linecap="round" stroke-linejoin="round"/>
<path d="M1.53906 5.37469C2.48356 5.43169 4.98381 5.48294 6.58381 4.79969C8.18381 4.11644 9.56056 2.85969 10.0328 2.46094M1.87556 7.90294C2.31621 8.96937 3.11079 9.85144 4.12556 10.4007" stroke="white" stroke-linecap="round" stroke-linejoin="round"/>
<path d="M1.5 6C1.49821 4.71794 1.99068 3.48451 2.875 2.55625C3.34156 2.06387 3.9037 1.67188 4.52701 1.40429C5.15032 1.1367 5.82168 0.999127 6.5 1M8.5 1.416C9.06952 1.66495 9.58762 2.0179 10.0278 2.45675C10.495 2.92083 10.8657 3.47289 11.1184 4.08106C11.3711 4.68922 11.5008 5.34143 11.5 6C11.5 6.6155 11.3888 7.20525 11.185 7.75M6.5 11C7.15489 11.0008 7.80351 10.8726 8.40882 10.6226C9.01412 10.3727 9.56425 10.0059 10.0278 9.54325" stroke="white" stroke-linecap="round" stroke-linejoin="round"/>
</svg>
