<svg width="19" height="20" viewBox="0 0 19 20" fill="none" xmlns="http://www.w3.org/2000/svg">
<path d="M2.56641 16.515V4.79478C2.56641 4.38818 2.72792 3.99825 3.01543 3.71074C3.30293 3.42324 3.69287 3.26172 4.09946 3.26172H14.8309C15.2375 3.26172 15.6274 3.42324 15.9149 3.71074C16.2024 3.99825 16.3639 4.38818 16.3639 4.79478V12.4601C16.3639 12.8667 16.2024 13.2566 15.9149 13.5441C15.6274 13.8316 15.2375 13.9931 14.8309 13.9931H6.36916C6.13938 13.9932 5.91254 14.0448 5.70543 14.1443C5.49831 14.2439 5.31622 14.3886 5.1726 14.568L3.38583 16.8017C3.32636 16.8762 3.24521 16.9304 3.1536 16.9568C3.06198 16.9832 2.96443 16.9804 2.87444 16.949C2.78445 16.9175 2.70647 16.8588 2.65129 16.7811C2.5961 16.7033 2.56644 16.6103 2.56641 16.515Z" stroke="white" stroke-width="1.14979"/>
</svg>
