<svg width="14" height="14" viewBox="0 0 14 14" fill="none" xmlns="http://www.w3.org/2000/svg">
<g clip-path="url(#clip0_1600_7541)">
<path d="M12.8346 7.0013C12.8346 8.61673 12.178 10.0788 11.1171 11.1351C10.0621 12.1854 8.60754 12.8346 7.0013 12.8346C3.77964 12.8346 1.16797 10.223 1.16797 7.0013C1.16797 5.44424 1.77802 4.02969 2.77214 2.98359C3.83494 1.86521 5.3367 1.16797 7.0013 1.16797C8.60754 1.16797 10.0621 1.81717 11.1171 2.8675C12.178 3.92384 12.8346 5.38588 12.8346 7.0013Z" fill="#2F88FF" stroke="black" stroke-width="1.16667" stroke-linecap="round" stroke-linejoin="round"/>
<path d="M12.8355 6.99936C11.9843 6.99936 9.6363 6.67832 7.53493 7.60113C5.2522 8.60358 3.59915 10.1585 2.87891 11.1256" stroke="white" stroke-width="1.16667" stroke-linecap="round" stroke-linejoin="round"/>
<path d="M4.8125 1.59375C5.72553 2.43634 7.71759 4.58179 8.45833 6.71139C9.19908 8.841 9.4736 11.4595 9.64267 12.2048" stroke="white" stroke-width="1.16667" stroke-linecap="round" stroke-linejoin="round"/>
<path d="M1.21484 6.27041C2.31669 6.33682 5.2336 6.39676 7.10027 5.59954C8.96693 4.80233 10.5732 3.33612 11.1242 2.87109" stroke="white" stroke-width="1.16667" stroke-linecap="round" stroke-linejoin="round"/>
<path d="M1.60547 9.22266C2.11929 10.4699 3.05295 11.4999 4.23047 12.1367" stroke="black" stroke-width="1.16667" stroke-linecap="round" stroke-linejoin="round"/>
<path d="M1.16797 7.00208C1.16797 5.44505 1.77802 4.03047 2.77214 2.98438" stroke="black" stroke-width="1.16667" stroke-linecap="round" stroke-linejoin="round"/>
<path d="M7.0026 1.16797C5.338 1.16797 3.83624 1.86521 2.77344 2.98359" stroke="black" stroke-width="1.16667" stroke-linecap="round" stroke-linejoin="round"/>
<path d="M9.33594 1.65234C10.0048 1.94459 10.6083 2.35866 11.1184 2.86649C12.1793 3.92281 12.8359 5.38487 12.8359 7.0003C12.8359 7.71856 12.7061 8.40651 12.4687 9.04196" stroke="black" stroke-width="1.16667" stroke-linecap="round" stroke-linejoin="round"/>
<path d="M7 12.8362C8.60624 12.8362 10.0608 12.187 11.1158 11.1367" stroke="black" stroke-width="1.16667" stroke-linecap="round" stroke-linejoin="round"/>
</g>
<defs>
<clipPath id="clip0_1600_7541">
<rect width="14" height="14" fill="white"/>
</clipPath>
</defs>
</svg>
