<svg width="14" height="14" viewBox="0 0 14 14" fill="none" xmlns="http://www.w3.org/2000/svg">
<path fill-rule="evenodd" clip-rule="evenodd" d="M12.8346 7.0013C12.8346 3.7813 10.2213 1.16797 7.0013 1.16797C3.7813 1.16797 1.16797 3.7813 1.16797 7.0013C1.16797 10.2213 3.7813 12.8346 7.0013 12.8346C10.2213 12.8346 12.8346 10.2207 12.8346 7.0013ZM7.58697 7.0013C7.58697 8.43514 6.43197 9.59714 5.00864 9.59714C3.58414 9.59714 2.42972 8.43514 2.42972 7.0013C2.42972 5.56747 3.58472 4.40489 5.00805 4.40489C6.43255 4.40489 7.58697 5.56747 7.58697 7.00072M10.4161 7.00072C10.4161 8.35055 9.83864 9.44488 9.12697 9.44488C8.41413 9.44488 7.83722 8.35055 7.83722 7.00072C7.83722 5.65089 8.41472 4.55655 9.12638 4.55655C9.83805 4.55655 10.4161 5.6503 10.4161 7.00072ZM11.5723 7.00072C11.5723 8.20938 11.3693 9.19055 11.1191 9.19055C10.8688 9.19055 10.6652 8.20997 10.6652 7.00072C10.6652 5.79147 10.8682 4.81089 11.1191 4.81089C11.3693 4.81089 11.5723 5.79088 11.5723 7.00072Z" fill="#E6E6E6"/>
</svg>
