<svg width="29" height="40" viewBox="0 0 29 40" fill="none" xmlns="http://www.w3.org/2000/svg">
<g clip-path="url(#clip0_1600_7479)">
<path d="M14.167 39.8977L2.6233 36.693L0.0507812 7.83984H28.3178L25.7426 36.6886L14.167 39.8977Z" fill="#264DE4"/>
<path d="M23.5373 34.8518L25.7378 10.1992H14.1836V37.445L23.5373 34.8518Z" fill="#2965F1"/>
<path d="M5.94984 20.9007L6.26696 24.4394H14.186V20.9007H5.94984ZM5.3125 13.7383L5.63416 17.277H14.186V13.7383H5.3125ZM14.186 30.0912L14.1705 30.0953L10.2294 29.0311L9.97743 26.2089H6.42508L6.92081 31.7652L14.1697 33.7774L14.186 33.773V30.0912Z" fill="#EBEBEB"/>
<path d="M6.70312 0H10.989V1.79235H8.49548V3.58471H10.9892V5.37695H6.70312V0ZM11.8463 0H16.1323V1.55856H13.6386V1.87025H16.1323V5.45496H11.8464V3.81828H14.34V3.50659H11.8462L11.8463 0ZM16.9896 0H21.2755V1.55856H18.7819V1.87025H21.2755V5.45496H16.9896V3.81828H19.4832V3.50659H16.9897L16.9896 0Z" fill="black"/>
<path d="M22.3977 20.9007L23.0365 13.7383H14.172V17.277H19.1584L18.8364 20.9007H14.172V24.4394H18.5295L18.1187 29.0289L14.1719 30.0942V33.7757L21.4265 31.7652L21.4797 31.1673L22.3114 21.851L22.3977 20.9007Z" fill="white"/>
</g>
<defs>
<clipPath id="clip0_1600_7479">
<rect width="28.37" height="40" fill="white"/>
</clipPath>
</defs>
</svg>
