<svg width="16" height="16" viewBox="0 0 16 16" fill="none" xmlns="http://www.w3.org/2000/svg">
<g clip-path="url(#clip0_1600_7390)">
<path d="M11.4881 5.033C11.4128 5.033 11.3412 4.98232 11.3412 4.90828V3.03287C11.3412 2.95883 11.3005 2.89844 11.225 2.89844H5.38785C5.31229 2.89844 5.27193 2.95883 5.27193 3.03287V4.90828C5.27193 4.98232 5.1903 5.02268 5.11443 5.02268H1.15969C1.08504 5.02268 1.02344 5.10371 1.02344 5.17684V7.26164C1.02344 7.33508 1.08504 7.45039 1.15969 7.45039H7.52818C7.60374 7.45039 7.69964 7.33508 7.69964 7.26164V6.81706C7.69964 6.74302 7.72756 6.54 7.80282 6.54H8.81062C8.88588 6.54 8.91349 6.74302 8.91349 6.81706V7.26164C8.91349 7.33508 9.00939 7.45039 9.08434 7.45039H15.4525C15.5284 7.45039 15.5897 7.33508 15.5897 7.26164V5.17684C15.5897 5.1034 15.5284 5.02268 15.4528 5.02268H11.4984L11.4881 5.033ZM6.21054 5.02268C6.13528 5.02268 6.18232 4.98232 6.18232 4.90858V3.84251C6.18232 3.76816 6.13528 3.80883 6.21054 3.80883H10.4026C10.4778 3.80883 10.4308 3.76816 10.4308 3.84251V4.90858C10.4308 4.98232 10.4778 5.02268 10.4026 5.02268H6.21054ZM8.93018 9.48724C8.93018 9.56068 8.88588 9.57464 8.81062 9.57464H7.80282C7.72756 9.57464 7.69964 9.60711 7.69964 9.53367V8.03517C7.69964 7.96173 7.60374 7.75386 7.52848 7.75386H1.15969C1.08504 7.75386 1.02344 7.96173 1.02344 8.03517V12.4745C1.02392 12.5104 1.03847 12.5446 1.06396 12.5698C1.08946 12.595 1.12384 12.6092 1.15969 12.6093H15.4528C15.4887 12.6094 15.5232 12.5953 15.5488 12.5701C15.5745 12.545 15.5891 12.5107 15.5897 12.4748V8.03517C15.5897 7.96173 15.5284 7.75386 15.4528 7.75386H9.08434C9.00939 7.75386 8.91349 7.96173 8.91349 8.03517V9.53367L8.93018 9.48724Z" fill="white"/>
</g>
<defs>
<clipPath id="clip0_1600_7390">
<rect width="15.1732" height="15.1732" fill="white" transform="translate(0.722656 0.46875)"/>
</clipPath>
</defs>
</svg>
