<svg width="13" height="12" viewBox="0 0 13 12" fill="none" xmlns="http://www.w3.org/2000/svg">
<path d="M6.5 1C5.84339 1 5.19321 1.12933 4.58658 1.3806C3.97995 1.63188 3.42876 2.00017 2.96447 2.46447C2.02678 3.40215 1.5 4.67392 1.5 6C1.5 8.21 2.935 10.085 4.92 10.75C5.17 10.79 5.25 10.635 5.25 10.5V9.655C3.865 9.955 3.57 8.985 3.57 8.985C3.34 8.405 3.015 8.25 3.015 8.25C2.56 7.94 3.05 7.95 3.05 7.95C3.55 7.985 3.815 8.465 3.815 8.465C4.25 9.225 4.985 9 5.27 8.88C5.315 8.555 5.445 8.335 5.585 8.21C4.475 8.085 3.31 7.655 3.31 5.75C3.31 5.195 3.5 4.75 3.825 4.395C3.775 4.27 3.6 3.75 3.875 3.075C3.875 3.075 4.295 2.94 5.25 3.585C5.645 3.475 6.075 3.42 6.5 3.42C6.925 3.42 7.355 3.475 7.75 3.585C8.705 2.94 9.125 3.075 9.125 3.075C9.4 3.75 9.225 4.27 9.175 4.395C9.5 4.75 9.69 5.195 9.69 5.75C9.69 7.66 8.52 8.08 7.405 8.205C7.585 8.36 7.75 8.665 7.75 9.13V10.5C7.75 10.635 7.83 10.795 8.085 10.75C10.07 10.08 11.5 8.21 11.5 6C11.5 5.34339 11.3707 4.69321 11.1194 4.08658C10.8681 3.47995 10.4998 2.92876 10.0355 2.46447C9.57124 2.00017 9.02005 1.63188 8.41342 1.3806C7.80679 1.12933 7.15661 1 6.5 1Z" fill="white"/>
</svg>
