<svg width="40" height="40" viewBox="0 0 40 40" fill="none" xmlns="http://www.w3.org/2000/svg">
<path d="M28.334 27.4511V12.3178L18.334 19.8844M3.70064 15.3178C3.45943 15.0588 3.32257 14.7197 3.31642 14.3658C3.31026 14.012 3.43525 13.6683 3.66731 13.4011L5.66731 11.5511C6.00064 11.2511 6.81731 11.1178 7.41731 11.5511L13.1173 15.9011L26.334 3.81777C26.8673 3.28444 27.784 3.06777 28.834 3.61777L35.5006 6.8011C36.1006 7.1511 36.6673 7.7011 36.6673 8.71777V31.2178C36.6673 31.8844 36.184 32.6011 35.6673 32.8844L28.334 36.3844C27.8006 36.6011 26.8006 36.4011 26.4506 36.0511L13.084 23.8844L7.41731 28.2178C6.78397 28.6511 6.00064 28.5344 5.66731 28.2178L3.66731 26.3844C3.13397 25.8344 3.20064 24.9344 3.75064 24.3844L8.75064 19.8844" fill="black"/>
</svg>
