<svg width="13" height="12" viewBox="0 0 13 12" fill="none" xmlns="http://www.w3.org/2000/svg">
<path d="M10 1.5C10.2652 1.5 10.5196 1.60536 10.7071 1.79289C10.8946 1.98043 11 2.23478 11 2.5V9.5C11 9.76522 10.8946 10.0196 10.7071 10.2071C10.5196 10.3946 10.2652 10.5 10 10.5H3C2.73478 10.5 2.48043 10.3946 2.29289 10.2071C2.10536 10.0196 2 9.76522 2 9.5V2.5C2 2.23478 2.10536 1.98043 2.29289 1.79289C2.48043 1.60536 2.73478 1.5 3 1.5H10ZM9.75 9.25V6.6C9.75 6.1677 9.57827 5.7531 9.27258 5.44742C8.9669 5.14173 8.5523 4.97 8.12 4.97C7.695 4.97 7.2 5.23 6.96 5.62V5.065H5.565V9.25H6.96V6.785C6.96 6.4 7.27 6.085 7.655 6.085C7.84065 6.085 8.0187 6.15875 8.14997 6.29003C8.28125 6.4213 8.355 6.59935 8.355 6.785V9.25H9.75ZM3.94 4.28C4.16278 4.28 4.37644 4.1915 4.53397 4.03397C4.6915 3.87644 4.78 3.66278 4.78 3.44C4.78 2.975 4.405 2.595 3.94 2.595C3.71589 2.595 3.50096 2.68403 3.34249 2.84249C3.18403 3.00096 3.095 3.21589 3.095 3.44C3.095 3.905 3.475 4.28 3.94 4.28ZM4.635 9.25V5.065H3.25V9.25H4.635Z" fill="white"/>
</svg>
