<svg width="14" height="14" viewBox="0 0 14 14" fill="none" xmlns="http://www.w3.org/2000/svg">
<path d="M9.33333 1.75C10.1069 1.75 10.8487 2.05729 11.3957 2.60427C11.9427 3.15125 12.25 3.89312 12.25 4.66667V9.33333C12.25 10.1069 11.9427 10.8487 11.3957 11.3957C10.8487 11.9427 10.1069 12.25 9.33333 12.25H4.66667C3.89312 12.25 3.15125 11.9427 2.60427 11.3957C2.05729 10.8487 1.75 10.1069 1.75 9.33333V4.66667C1.75 3.89312 2.05729 3.15125 2.60427 2.60427C3.15125 2.05729 3.89312 1.75 4.66667 1.75H9.33333ZM7 4.66667C6.38116 4.66667 5.78767 4.9125 5.35008 5.35008C4.9125 5.78767 4.66667 6.38116 4.66667 7C4.66667 7.61884 4.9125 8.21233 5.35008 8.64992C5.78767 9.0875 6.38116 9.33333 7 9.33333C7.61884 9.33333 8.21233 9.0875 8.64992 8.64992C9.0875 8.21233 9.33333 7.61884 9.33333 7C9.33333 6.38116 9.0875 5.78767 8.64992 5.35008C8.21233 4.9125 7.61884 4.66667 7 4.66667ZM7 5.83333C7.30942 5.83333 7.60616 5.95625 7.82496 6.17504C8.04375 6.39383 8.16667 6.69058 8.16667 7C8.16667 7.30942 8.04375 7.60616 7.82496 7.82496C7.60616 8.04375 7.30942 8.16667 7 8.16667C6.69058 8.16667 6.39383 8.04375 6.17504 7.82496C5.95625 7.60616 5.83333 7.30942 5.83333 7C5.83333 6.69058 5.95625 6.39383 6.17504 6.17504C6.39383 5.95625 6.69058 5.83333 7 5.83333ZM9.625 3.79167C9.47029 3.79167 9.32192 3.85312 9.21252 3.96252C9.10312 4.07192 9.04167 4.22029 9.04167 4.375C9.04167 4.52971 9.10312 4.67808 9.21252 4.78748C9.32192 4.89687 9.47029 4.95833 9.625 4.95833C9.77971 4.95833 9.92808 4.89687 10.0375 4.78748C10.1469 4.67808 10.2083 4.52971 10.2083 4.375C10.2083 4.22029 10.1469 4.07192 10.0375 3.96252C9.92808 3.85312 9.77971 3.79167 9.625 3.79167Z" fill="#E6E6E6"/>
</svg>
