<svg width="38" height="40" viewBox="0 0 38 40" fill="none" xmlns="http://www.w3.org/2000/svg">
<path d="M32.7985 33.3346H7.20408C7.06212 33.3339 6.92618 33.2772 6.8258 33.1768C6.72542 33.0764 6.6687 32.9405 6.66797 32.7985V7.20408C6.6687 7.06212 6.72542 6.92618 6.8258 6.8258C6.92618 6.72542 7.06212 6.6687 7.20408 6.66797H32.7985C32.9405 6.6687 33.0764 6.72542 33.1768 6.8258C33.2772 6.92618 33.3339 7.06212 33.3346 7.20408V32.7985C33.3339 32.9405 33.2772 33.0764 33.1768 33.1768C33.0764 33.2772 32.9405 33.3339 32.7985 33.3346Z" fill="#FCEA2B"/>
<path d="M32.7985 33.3346H7.20408C7.06212 33.3339 6.92618 33.2772 6.8258 33.1768C6.72542 33.0764 6.6687 32.9405 6.66797 32.7985V7.20408C6.6687 7.06212 6.72542 6.92618 6.8258 6.8258C6.92618 6.72542 7.06212 6.6687 7.20408 6.66797H32.7985C32.9405 6.6687 33.0764 6.72542 33.1768 6.8258C33.2772 6.92618 33.3339 7.06212 33.3346 7.20408V32.7985C33.3339 32.9405 33.2772 33.0764 33.1768 33.1768C33.0764 33.2772 32.9405 33.3339 32.7985 33.3346Z" stroke="black" stroke-width="1.11111" stroke-linejoin="round"/>
<path d="M29.9006 22.9661C29.6473 21.9788 28.5512 21.2383 27.2379 21.2383C25.7362 21.2383 24.5195 22.2066 24.5195 23.4027C24.5195 24.5977 25.7368 25.5672 27.2379 25.5672L27.1823 25.5744C28.684 25.5744 29.9006 26.5438 29.9006 27.7388C29.9006 28.9349 28.6834 29.9033 27.1823 29.9033C25.869 29.9033 24.7729 29.1611 24.5195 28.1744" stroke="black" stroke-width="2.47389" stroke-miterlimit="10" stroke-linecap="round" stroke-linejoin="round"/>
<path d="M20.4105 21.2383V26.8105C20.4109 27.4088 20.2377 27.9944 19.912 28.4963C19.5863 28.9982 19.122 29.3948 18.5754 29.6382C18.0288 29.8815 17.4234 29.9612 16.8325 29.8674C16.2416 29.7737 15.6905 29.5105 15.2461 29.1099" stroke="black" stroke-width="2.47556" stroke-miterlimit="10" stroke-linecap="round" stroke-linejoin="round"/>
</svg>
