<svg width="14" height="14" viewBox="0 0 14 14" fill="none" xmlns="http://www.w3.org/2000/svg">
<g clip-path="url(#clip0_1600_7524)">
<path d="M10.7188 0H3.28125C1.46907 0 0 1.46907 0 3.28125V10.7188C0 12.5309 1.46907 14 3.28125 14H10.7188C12.5309 14 14 12.5309 14 10.7188V3.28125C14 1.46907 12.5309 0 10.7188 0Z" fill="#F4F2ED"/>
<path d="M2.27697 11.1019H4.01702V6.87602L1.53125 5.01172V10.3562C1.53125 10.7688 1.86561 11.1019 2.27697 11.1019Z" fill="#4285F4"/>
<path d="M9.98438 11.1019H11.7245C12.1371 11.1019 12.4702 10.7676 12.4702 10.3562V5.01172L9.98438 6.87607" fill="#34A853"/>
<path d="M9.98438 3.64633V6.87787L12.4702 5.01357V4.01914C12.4702 3.09694 11.4175 2.57117 10.6804 3.12428" fill="#FBBC04"/>
<path d="M4.01562 6.87612V3.64464L6.99855 5.88174L9.98148 3.64453V6.87607L6.99855 9.11334" fill="#EA4335"/>
<path d="M1.53125 4.01914V5.01346L4.01702 6.87782V3.64633L3.32101 3.12428C2.58273 2.57117 1.53125 3.09694 1.53125 4.01914Z" fill="#C5221F"/>
</g>
<defs>
<clipPath id="clip0_1600_7524">
<rect width="14" height="14" fill="white"/>
</clipPath>
</defs>
</svg>
