<svg width="16" height="16" viewBox="0 0 16 16" fill="none" xmlns="http://www.w3.org/2000/svg">
<path d="M13.3643 2.00781V11.5461C13.3641 11.9486 13.2358 12.3407 12.9979 12.6655C12.7601 12.9903 12.4251 13.231 12.0414 13.3528C11.6577 13.4746 11.2452 13.4712 10.8636 13.343C10.482 13.2147 10.1511 12.9684 9.91872 12.6397C9.68638 12.3109 9.56468 11.9168 9.57122 11.5143C9.57776 11.1117 9.7122 10.7217 9.9551 10.4007C10.198 10.0797 10.5367 9.84424 10.9223 9.72849C11.3079 9.61275 11.7203 9.62269 12.0998 9.75688V6.54333L5.77767 7.06997V12.1783C5.77746 12.5808 5.64916 12.9729 5.41134 13.2977C5.17353 13.6225 4.83852 13.8633 4.45482 13.985C4.07111 14.1068 3.65861 14.1034 3.277 13.9752C2.89539 13.847 2.56447 13.6007 2.33213 13.2719C2.09979 12.9431 1.97809 12.549 1.98463 12.1465C1.99116 11.7439 2.12561 11.354 2.36851 11.0329C2.6114 10.7119 2.95014 10.4765 3.33572 10.3607C3.72129 10.245 4.13369 10.2549 4.51324 10.3891V2.74561L13.3643 2.00781ZM4.51324 12.1783C4.51324 12.0106 4.44663 11.8498 4.32807 11.7312C4.2095 11.6127 4.0487 11.5461 3.88102 11.5461C3.71335 11.5461 3.55254 11.6127 3.43398 11.7312C3.31542 11.8498 3.24881 12.0106 3.24881 12.1783C3.24881 12.3459 3.31542 12.5068 3.43398 12.6253C3.55254 12.7439 3.71335 12.8105 3.88102 12.8105C4.0487 12.8105 4.2095 12.7439 4.32807 12.6253C4.44663 12.5068 4.51324 12.3459 4.51324 12.1783ZM5.77767 5.80111L12.0998 5.27447V3.38225L5.77767 3.90889V5.80111ZM12.0998 11.5461C12.0998 11.3784 12.0332 11.2176 11.9147 11.099C11.7961 10.9804 11.6353 10.9138 11.4676 10.9138C11.2999 10.9138 11.1391 10.9804 11.0206 11.099C10.902 11.2176 10.8354 11.3784 10.8354 11.5461C10.8354 11.7137 10.902 11.8745 11.0206 11.9931C11.1391 12.1117 11.2999 12.1783 11.4676 12.1783C11.6353 12.1783 11.7961 12.1117 11.9147 11.9931C12.0332 11.8745 12.0998 11.7137 12.0998 11.5461Z" fill="white"/>
</svg>
